<svg xmlns="http://www.w3.org/2000/svg" viewBox="0 0 1600 800">
  <defs>
    <radialGradient id="glowL" cx="22%" cy="50%" r="40%">
      <stop offset="0%" stop-color="#ffe9c2" stop-opacity="0.12"/>
      <stop offset="100%" stop-color="#ffe9c2" stop-opacity="0"/>
    </radialGradient>
    <radialGradient id="glowR" cx="78%" cy="50%" r="40%">
      <stop offset="0%" stop-color="#8a8f9c" stop-opacity="0.14"/>
      <stop offset="100%" stop-color="#8a8f9c" stop-opacity="0"/>
    </radialGradient>
    <marker id="arr" viewBox="0 0 10 10" refX="8" refY="5" markerWidth="7" markerHeight="7" orient="auto-start-reverse">
      <path d="M0 0 L10 5 L0 10 z" fill="#a1a1aa" fill-opacity="0.6"/>
    </marker>
  </defs>
  <rect width="1600" height="800" fill="#0b0b0e"/>
  <rect width="1600" height="800" fill="url(#glowL)"/>
  <rect width="1600" height="800" fill="url(#glowR)"/>
  <!-- nodes -->
  <g font-family="ui-monospace, monospace" font-size="18" text-anchor="middle">
    <rect x="180" y="320" width="220" height="160" rx="24" fill="#0b0b0e" stroke="#f4f4f5" stroke-opacity="0.45" stroke-width="2"/>
    <circle cx="290" cy="380" r="12" fill="#f4f4f5"/>
    <text x="290" y="436" fill="#f4f4f5">Cradle Desktop</text>

    <rect x="690" y="340" width="220" height="120" rx="60" fill="#0b0b0e" stroke="#ffe9c2" stroke-opacity="0.6" stroke-width="2"/>
    <text x="800" y="394" fill="#ffe9c2">Bridge</text>
    <text x="800" y="422" fill="#6b6b73" font-size="14">conversation bridge</text>

    <rect x="1200" y="320" width="220" height="160" rx="24" fill="#0b0b0e" stroke="#f4f4f5" stroke-opacity="0.45" stroke-width="2"/>
    <path d="M1262 386 h96 M1262 410 h60" stroke="#f4f4f5" stroke-opacity="0.9" stroke-width="7" stroke-linecap="round"/>
    <text x="1310" y="456" fill="#f4f4f5">Slack</text>
  </g>
  <!-- flows -->
  <g stroke-width="2" fill="none">
    <line x1="400" y1="376" x2="680" y2="376" stroke="#f4f4f5" stroke-opacity="0.35" marker-end="url(#arr)"/>
    <line x1="680" y1="424" x2="400" y2="424" stroke="#f4f4f5" stroke-opacity="0.18" marker-end="url(#arr)"/>
    <line x1="920" y1="376" x2="1190" y2="376" stroke="#f4f4f5" stroke-opacity="0.35" marker-end="url(#arr)"/>
    <line x1="1190" y1="424" x2="920" y2="424" stroke="#f4f4f5" stroke-opacity="0.18" marker-end="url(#arr)"/>
  </g>
  <!-- flow labels -->
  <g font-family="ui-monospace, monospace" font-size="14" fill="#6b6b73" text-anchor="middle">
    <text x="540" y="356">session events</text>
    <text x="540" y="452">replies &amp; controls</text>
    <text x="1055" y="356">messages</text>
    <text x="1055" y="452">bind · status · model</text>
  </g>
</svg>
