<svg xmlns="http://www.w3.org/2000/svg" viewBox="0 0 64 64" role="img" aria-label="Browser Use">
  <rect width="64" height="64" rx="14" fill="#0f172a"/>
  <path fill="#38bdf8" d="M15 22a7 7 0 0 1 7-7h20a7 7 0 0 1 7 7v18a7 7 0 0 1-7 7H22a7 7 0 0 1-7-7V22Z"/>
  <path fill="#e0f2fe" d="M19 24h26v16a3 3 0 0 1-3 3H22a3 3 0 0 1-3-3V24Z"/>
  <path fill="#0f172a" d="M19 22a3 3 0 0 1 3-3h20a3 3 0 0 1 3 3v4H19v-4Z"/>
  <circle cx="23" cy="22.5" r="1.4" fill="#f97316"/>
  <circle cx="28" cy="22.5" r="1.4" fill="#facc15"/>
  <circle cx="33" cy="22.5" r="1.4" fill="#22c55e"/>
  <path fill="#0284c7" d="M31 30.5a2 2 0 0 1 2.9-1.8l8 4a2 2 0 0 1-.2 3.7l-3.7 1.3 2.5 4.3a2 2 0 0 1-3.5 2l-2.5-4.4-3 2.9a2 2 0 0 1-3.4-1.4l-.1-10.6Z"/>
</svg>
